<?xml version="1.0" encoding="UTF-8" standalone="no"?>
<!DOCTYPE svg PUBLIC "-//W3C//DTD SVG 1.1//EN"
 "http://www.w3.org/Graphics/SVG/1.1/DTD/svg11.dtd">
<!-- Generated by graphviz version 2.40.1 (20161225.0304)
 -->
<!-- Title: Dual Switch Cover Control Pages: 1 -->
<svg width="764pt" height="399pt"
 viewBox="0.00 0.00 764.32 399.20" xmlns="http://www.w3.org/2000/svg" xmlns:xlink="http://www.w3.org/1999/xlink">
<g id="graph0" class="graph" transform="scale(1 1) rotate(0) translate(4 395.2)">
<title>Dual Switch Cover Control</title>
<polygon fill="#ffffff" stroke="transparent" points="-4,4 -4,-395.2 760.3216,-395.2 760.3216,4 -4,4"/>
<!-- IDLE -->
<g id="node1" class="node">
<title>IDLE</title>
<ellipse fill="none" stroke="#000000" cx="377.56" cy="-373.2" rx="33.043" ry="18"/>
<text text-anchor="middle" x="377.56" y="-369" font-family="Times,serif" font-size="14.00" fill="#000000">IDLE</text>
</g>
<!-- WAITING_CLOSE_BUTTON -->
<g id="node2" class="node">
<title>WAITING_CLOSE_BUTTON</title>
<ellipse fill="none" stroke="#000000" cx="258.56" cy="-284.4" rx="132.5674" ry="18"/>
<text text-anchor="middle" x="258.56" y="-280.2" font-family="Times,serif" font-size="14.00" fill="#000000">WAITING_CLOSE_BUTTON</text>
</g>
<!-- IDLE&#45;&gt;WAITING_CLOSE_BUTTON -->
<g id="edge1" class="edge">
<title>IDLE&#45;&gt;WAITING_CLOSE_BUTTON</title>
<path fill="none" stroke="#000000" d="M345.5716,-368.6343C311.6368,-363.0589 261.3444,-352.449 249.7984,-337.2 244.4768,-330.1716 244.303,-321.1007 246.1923,-312.4666"/>
<polygon fill="#000000" stroke="#000000" points="249.6075,-313.2661 249.1731,-302.6801 242.9112,-311.2264 249.6075,-313.2661"/>
<text text-anchor="middle" x="282.4408" y="-324.6" font-family="Times,serif" font-size="14.00" fill="#000000">OPEN_ON</text>
</g>
<!-- WAITING_OPEN_BUTTON -->
<g id="node3" class="node">
<title>WAITING_OPEN_BUTTON</title>
<ellipse fill="none" stroke="#000000" cx="132.56" cy="-106.8" rx="127.3305" ry="18"/>
<text text-anchor="middle" x="132.56" y="-102.6" font-family="Times,serif" font-size="14.00" fill="#000000">WAITING_OPEN_BUTTON</text>
</g>
<!-- IDLE&#45;&gt;WAITING_OPEN_BUTTON -->
<g id="edge7" class="edge">
<title>IDLE&#45;&gt;WAITING_OPEN_BUTTON</title>
<path fill="none" stroke="#000000" d="M344.5554,-372.0586C277.5974,-369.2779 128.3484,-360.579 83.56,-337.2 36.5888,-312.6816 22.9406,-297.8904 4.0158,-248.4 -15.3994,-197.6269 42.5938,-153.8811 86.9257,-128.9406"/>
<polygon fill="#000000" stroke="#000000" points="88.7662,-131.9234 95.864,-124.0575 85.4101,-125.7804 88.7662,-131.9234"/>
<text text-anchor="middle" x="40.3321" y="-235.8" font-family="Times,serif" font-size="14.00" fill="#000000">CLOSE_ON</text>
</g>
<!-- WAITING_CLOSE_BUTTON&#45;&gt;IDLE -->
<g id="edge5" class="edge">
<title>WAITING_CLOSE_BUTTON&#45;&gt;IDLE</title>
<path fill="none" stroke="#000000" d="M286.9464,-302.129C295.6243,-307.7745 305.1054,-314.1748 313.56,-320.4 326.6273,-330.0216 340.5877,-341.4 352.1246,-351.1257"/>
<polygon fill="#000000" stroke="#000000" points="350.1646,-354.0535 360.0495,-357.8667 354.7001,-348.7215 350.1646,-354.0535"/>
<text text-anchor="middle" x="369.1701" y="-324.6" font-family="Times,serif" font-size="14.00" fill="#000000">OPEN_OFF</text>
</g>
<!-- SUN_TRACKER_ON -->
<g id="node4" class="node">
<title>SUN_TRACKER_ON</title>
<ellipse fill="none" stroke="#000000" cx="224.56" cy="-195.6" rx="99.0187" ry="18"/>
<text text-anchor="middle" x="224.56" y="-191.4" font-family="Times,serif" font-size="14.00" fill="#000000">SUN_TRACKER_ON</text>
</g>
<!-- WAITING_CLOSE_BUTTON&#45;&gt;SUN_TRACKER_ON -->
<g id="edge8" class="edge">
<title>WAITING_CLOSE_BUTTON&#45;&gt;SUN_TRACKER_ON</title>
<path fill="none" stroke="#000000" d="M217.1182,-267.0823C209.8677,-262.138 203.2884,-255.9759 199.0158,-248.4 194.2637,-239.9737 196.5562,-230.5302 201.3194,-221.9848"/>
<polygon fill="#000000" stroke="#000000" points="204.3511,-223.7471 206.9858,-213.485 198.5266,-219.8642 204.3511,-223.7471"/>
<text text-anchor="middle" x="235.3321" y="-235.8" font-family="Times,serif" font-size="14.00" fill="#000000">CLOSE_ON</text>
</g>
<!-- OPENING -->
<g id="node6" class="node">
<title>OPENING</title>
<ellipse fill="none" stroke="#000000" cx="669.56" cy="-195.6" rx="53.309" ry="18"/>
<text text-anchor="middle" x="669.56" y="-191.4" font-family="Times,serif" font-size="14.00" fill="#000000">OPENING</text>
</g>
<!-- WAITING_CLOSE_BUTTON&#45;&gt;OPENING -->
<g id="edge13" class="edge">
<title>WAITING_CLOSE_BUTTON&#45;&gt;OPENING</title>
<path fill="none" stroke="#000000" d="M314.8668,-267.9745C355.9525,-256.4719 413.1421,-241.4554 464.1616,-231.6 524.6315,-219.919 541.1338,-225.5045 601.56,-213.6 607.2402,-212.481 613.1485,-211.1591 619.0056,-209.748"/>
<polygon fill="#000000" stroke="#000000" points="619.9123,-213.1291 628.7652,-207.3088 618.2149,-206.338 619.9123,-213.1291"/>
<text text-anchor="middle" x="529.2592" y="-235.8" font-family="Times,serif" font-size="14.00" fill="#000000">OPENING_TIMEOUT</text>
</g>
<!-- WAITING_OPEN_BUTTON&#45;&gt;IDLE -->
<g id="edge11" class="edge">
<title>WAITING_OPEN_BUTTON&#45;&gt;IDLE</title>
<path fill="none" stroke="#000000" d="M123.7257,-125.0086C106.9321,-162.5506 75.5684,-249.4649 116.56,-302.4 143.1639,-336.7553 267.7431,-358.4433 334.7098,-367.8215"/>
<polygon fill="#000000" stroke="#000000" points="334.5569,-371.3331 344.9391,-369.221 335.5058,-364.3977 334.5569,-371.3331"/>
<text text-anchor="middle" x="136.0614" y="-235.8" font-family="Times,serif" font-size="14.00" fill="#000000">CLOSE_OFF</text>
</g>
<!-- WAITING_OPEN_BUTTON&#45;&gt;SUN_TRACKER_ON -->
<g id="edge2" class="edge">
<title>WAITING_OPEN_BUTTON&#45;&gt;SUN_TRACKER_ON</title>
<path fill="none" stroke="#000000" d="M177.2681,-123.8451C186.4855,-128.8939 195.5164,-135.1674 202.56,-142.8 209.068,-149.8522 213.7975,-159.1035 217.1639,-167.889"/>
<polygon fill="#000000" stroke="#000000" points="213.8851,-169.119 220.4076,-177.4681 220.5153,-166.8738 213.8851,-169.119"/>
<text text-anchor="middle" x="245.4408" y="-147" font-family="Times,serif" font-size="14.00" fill="#000000">OPEN_ON</text>
</g>
<!-- CLOSING -->
<g id="node5" class="node">
<title>CLOSING</title>
<ellipse fill="none" stroke="#000000" cx="563.56" cy="-18" rx="52.7469" ry="18"/>
<text text-anchor="middle" x="563.56" y="-13.8" font-family="Times,serif" font-size="14.00" fill="#000000">CLOSING</text>
</g>
<!-- WAITING_OPEN_BUTTON&#45;&gt;CLOSING -->
<g id="edge14" class="edge">
<title>WAITING_OPEN_BUTTON&#45;&gt;CLOSING</title>
<path fill="none" stroke="#000000" d="M161.5219,-89.1193C182.5193,-77.1734 212.0138,-62.146 239.9316,-54 287.4541,-40.1336 421.4218,-28.3909 501.3135,-22.356"/>
<polygon fill="#000000" stroke="#000000" points="502.0231,-25.8128 511.7347,-21.578 501.5018,-18.8323 502.0231,-25.8128"/>
<text text-anchor="middle" x="305.8742" y="-58.2" font-family="Times,serif" font-size="14.00" fill="#000000">CLOSING_TIMEOUT</text>
</g>
<!-- SUN_TRACKER_ON&#45;&gt;WAITING_CLOSE_BUTTON -->
<g id="edge12" class="edge">
<title>SUN_TRACKER_ON&#45;&gt;WAITING_CLOSE_BUTTON</title>
<path fill="none" stroke="#000000" d="M254.8524,-212.9088C261.1819,-218.0562 267.0066,-224.3068 270.56,-231.6 274.3069,-239.2902 273.8736,-248.1848 271.7587,-256.4559"/>
<polygon fill="#000000" stroke="#000000" points="268.3813,-255.5187 268.5127,-266.1127 275.0165,-257.749 268.3813,-255.5187"/>
<text text-anchor="middle" x="312.0614" y="-235.8" font-family="Times,serif" font-size="14.00" fill="#000000">CLOSE_OFF</text>
</g>
<!-- SUN_TRACKER_ON&#45;&gt;WAITING_OPEN_BUTTON -->
<g id="edge6" class="edge">
<title>SUN_TRACKER_ON&#45;&gt;WAITING_OPEN_BUTTON</title>
<path fill="none" stroke="#000000" d="M169.242,-180.5931C151.259,-174.5197 134.5643,-167.1606 129.3398,-159.6 124.4404,-152.5098 123.5657,-143.5226 124.4234,-134.982"/>
<polygon fill="#000000" stroke="#000000" points="127.904,-135.396 126.1747,-124.9433 121.0081,-134.193 127.904,-135.396"/>
<text text-anchor="middle" x="164.1701" y="-147" font-family="Times,serif" font-size="14.00" fill="#000000">OPEN_OFF</text>
</g>
<!-- CLOSING&#45;&gt;IDLE -->
<g id="edge10" class="edge">
<title>CLOSING&#45;&gt;IDLE</title>
<path fill="none" stroke="#000000" d="M543.8069,-34.8905C506.7179,-68.0683 427.7686,-146.0089 398.56,-231.6 396.1485,-238.6665 398.1471,-240.9448 398.56,-248.4 399.0052,-256.4369 399.7445,-258.3922 400.56,-266.4 403.0021,-290.3786 404.4477,-296.323 405.56,-320.4 405.9046,-327.8587 407.9832,-330.1375 405.56,-337.2 404.1435,-341.3285 402.0387,-345.3482 399.6078,-349.1146"/>
<polygon fill="#000000" stroke="#000000" points="396.634,-347.25 393.514,-357.3751 402.2671,-351.4056 396.634,-347.25"/>
<text text-anchor="middle" x="461.0614" y="-191.4" font-family="Times,serif" font-size="14.00" fill="#000000">CLOSE_OFF</text>
</g>
<!-- CLOSING&#45;&gt;IDLE -->
<g id="edge16" class="edge">
<title>CLOSING&#45;&gt;IDLE</title>
<path fill="none" stroke="#000000" d="M563.56,-36.0279C563.56,-53.9689 563.56,-82.2875 563.56,-106.8 563.56,-284.4 563.56,-284.4 563.56,-284.4 563.56,-316.5705 471.7999,-347.3574 417.1801,-362.8335"/>
<polygon fill="#000000" stroke="#000000" points="416.1402,-359.4898 407.4441,-365.5419 418.0164,-366.2337 416.1402,-359.4898"/>
<text text-anchor="middle" x="580.6722" y="-191.4" font-family="Times,serif" font-size="14.00" fill="#000000">STOP</text>
</g>
<!-- CLOSING&#45;&gt;OPENING -->
<g id="edge3" class="edge">
<title>CLOSING&#45;&gt;OPENING</title>
<path fill="none" stroke="#000000" d="M604.2684,-29.688C632.5679,-40.1777 668.2066,-58.6654 685.56,-88.8 699.5782,-113.1429 691.7071,-145.5745 682.767,-168.2884"/>
<polygon fill="#000000" stroke="#000000" points="679.4684,-167.1026 678.7954,-177.6761 685.9152,-169.8301 679.4684,-167.1026"/>
<text text-anchor="middle" x="724.4408" y="-102.6" font-family="Times,serif" font-size="14.00" fill="#000000">OPEN_ON</text>
</g>
<!-- OPENING&#45;&gt;IDLE -->
<g id="edge4" class="edge">
<title>OPENING&#45;&gt;IDLE</title>
<path fill="none" stroke="#000000" d="M657.9516,-213.3348C648.5911,-227.6467 635.0961,-248.3055 623.3398,-266.4 602.9245,-297.8221 608.7499,-316.4316 577.56,-337.2 552.4222,-353.9385 471.4566,-364.3897 420.5781,-369.4768"/>
<polygon fill="#000000" stroke="#000000" points="420.1345,-366.0033 410.519,-370.4521 420.8101,-372.9706 420.1345,-366.0033"/>
<text text-anchor="middle" x="657.1701" y="-280.2" font-family="Times,serif" font-size="14.00" fill="#000000">OPEN_OFF</text>
</g>
<!-- OPENING&#45;&gt;IDLE -->
<g id="edge15" class="edge">
<title>OPENING&#45;&gt;IDLE</title>
<path fill="none" stroke="#000000" d="M681.1272,-213.4867C694.1506,-236.1213 711.2113,-275.4039 692.56,-302.4 661.9156,-346.7551 499.4661,-364.4275 420.5961,-370.4727"/>
<polygon fill="#000000" stroke="#000000" points="420.2129,-366.9914 410.4977,-371.2181 420.7282,-373.9724 420.2129,-366.9914"/>
<text text-anchor="middle" x="717.6722" y="-280.2" font-family="Times,serif" font-size="14.00" fill="#000000">STOP</text>
</g>
<!-- OPENING&#45;&gt;CLOSING -->
<g id="edge9" class="edge">
<title>OPENING&#45;&gt;CLOSING</title>
<path fill="none" stroke="#000000" d="M652.603,-178.3757C639.7564,-164.6801 622.2829,-144.5954 610.0158,-124.8 601.4687,-111.0076 585.3791,-72.5313 574.5638,-45.7428"/>
<polygon fill="#000000" stroke="#000000" points="577.6763,-44.1009 570.7037,-36.1239 571.1799,-46.708 577.6763,-44.1009"/>
<text text-anchor="middle" x="645.3321" y="-102.6" font-family="Times,serif" font-size="14.00" fill="#000000">CLOSE_ON</text>
</g>
</g>
</svg>
